# xmcd
#
# Track frame offsets:
#	150
#	18330
#	31738
#	39963
#	48863
#	64181
#	79572
#	98187
#	121968
#	133468
#	143274
#	156760
#	168366
#	182627
#	200968
#	215096
#	230333
#	255889
#
# Disc length: 3696 seconds
#
# Revision: 1
# Processed by: cddbd v1.5.2PL0 Copyright (c) Steve Scherf et al.
# Submitted via: EasyCDDAExtractor 6.0.0.1
#
DISCID=eb0e6e12
DTITLE=Various Artist - Zic de Zinc 2 - Cd 2
DYEAR=07
DGENRE=Blues
TTITLE0=Polo avec Sanseverino - Vous avez déjà tout
TTITLE1=Les doigts de l'homme - Etre ou avoir
TTITLE2=Lalala - Ah si j'avais un franc cinquante
TTITLE3=Les Szgaboonistes - La java des malfrats (inédit)
TTITLE4=Les joyeux urbains - Personnages
TTITLE5=Les severes - Les baveux
TTITLE6=Nationale 7 - Chanson de campagne
TTITLE7=Les grosses papilles avec Mon Côté punk - Les Mots
TTITLE8=Rue de la Muette - Les mauvais coups
TTITLE9=Les Blaireaux - Petits potins (inédit)
TTITLE10=Les Malpolis - Les Charlottes
TTITLE11=Les notaires - Poisson d'avril (inédit)
TTITLE12=Anaïs - Mon Coeur mon amour (garage mix)
TTITLE13=Debout sur le Zinc - Des larmes sur ma manche
TTITLE14=Klaktonclown - Que cachent les mains des filles (inédit)
TTITLE15=Loic Lantoine - Pierrot
TTITLE16=Jehan avec Agnes Bihll, Allain Leprest, Jamait, Loïc Lantoine et Roma
TTITLE16=in Didier - Adieu pour un artiste
TTITLE17=Bonus Vidéo Clip - Jamais - Jean Louis (ou le monologue du client)
EXTD=
EXTT0=
EXTT1=
EXTT2=
EXTT3=
EXTT4=
EXTT5=
EXTT6=
EXTT7=
EXTT8=
EXTT9=
EXTT10=
EXTT11=
EXTT12=
EXTT13=
EXTT14=
EXTT15=
EXTT16=
EXTT17=
PLAYORDER=
